# This file uses meters as units for non-parametric coordinates.

mtllib Pizza.mtl
g default
v 399.379913 30.543934 -319.828003
v 181.687027 30.543934 -409.999329
v -51.926193 30.543934 -440.755066
v -285.539429 30.543934 -409.999390
v 380.915741 128.200348 -287.856415
v 172.129257 128.283295 -374.338593
v -51.926224 128.283295 -403.836151
v -275.982056 128.200287 -374.338593
v -51.926300 30.543934 461.857117
v -51.926590 74.000656 461.857208
v 399.379913 100.000000 -319.828003
v 181.687027 100.000000 -409.999329
v -51.926208 100.000000 -440.755127
v -285.539673 100.000000 -409.999390
v -181.426651 132.899506 -393.438568
v -186.576752 100.601563 -433.101196
v -186.576630 30.543888 -433.101257
v 65.189697 30.543888 -433.101318
v 65.189697 100.601563 -433.101318
v 60.039505 132.899506 -393.438568
v 293.277618 132.899567 -330.942535
v 308.377350 100.601563 -367.939392
v 308.377350 30.543888 -367.939270
v -248.642044 74.000656 -271.898529
v -151.446472 73.936081 -299.153748
v -51.926300 74.221115 -304.972412
v 44.620880 73.936081 -299.153687
v 142.597778 74.221115 -279.362793
v 234.007172 73.936081 -248.407791
v 328.248383 74.000664 -195.841003
v 323.865387 30.543934 -189.032898
v 234.007172 30.543926 -233.161499
v 142.597839 30.543934 -264.116516
v 44.620911 30.543926 -283.907410
v -51.926270 30.543934 -289.726135
v -151.446259 30.543926 -283.907532
v -246.450256 30.543934 -264.116516
v -267.988525 100.147339 -344.497437
v -267.988281 30.543934 -344.497498
v -162.300659 30.543926 -366.355103
v -51.926239 30.543934 -372.942688
v 55.475357 30.543926 -366.354919
v 164.135834 30.543934 -344.497498
v 265.830811 30.543926 -309.990479
v 365.473663 30.543934 -261.100647
v 365.473663 100.147339 -261.100586
v -257.378967 122.687279 -303.084747
v -156.167908 122.932213 -326.894379
v -51.926270 122.890648 -333.047394
v 49.342300 122.932213 -326.894257
v 151.966370 122.890648 -306.204376
v 247.849762 122.932213 -273.704254
v 344.823517 122.687462 -225.360062
v -145.999420 74.000656 110.772430
v -102.152222 73.968002 85.485168
v -51.926437 74.112106 82.140656
v -7.376457 73.970932 117.737244
v 40.215691 74.105148 117.978088
v 77.021912 73.971542 148.422211
v 100.451813 74.000656 197.930389
v 100.451981 30.543934 197.930298
v 77.022095 30.543930 148.422180
v 40.215858 30.543934 117.978027
v -7.376289 30.543930 117.737183
v -51.926285 30.543934 82.140625
v -102.151970 30.543930 85.485107
v -145.999115 30.543934 110.772369
v 23.947887 73.949913 -125.075455
v 114.176369 74.188881 -160.809662
v 198.989044 73.943970 -151.199722
v 268.097534 74.000656 -93.087425
v 268.097595 30.543934 -92.440308
v 198.989090 30.543928 -148.043030
v 114.176453 30.543934 -158.046600
v 23.947975 30.543926 -124.222435
v -51.926285 30.543934 -142.853760
v -130.792358 30.543928 -129.135071
v -197.819275 30.543934 -82.623108
v -197.819565 74.000656 -82.623047
v -130.792587 73.949509 -129.135010
v -51.926361 74.178024 -142.853760
vt 0.910951 0.471173
vt 0.897120 0.496583
vt 0.881077 0.452037
vt 0.914333 0.514894
vt 0.897030 0.536775
vt 0.855828 0.447262
vt 0.855828 0.496583
vt 0.855828 0.536775
vt 0.855828 0.335898
vt 0.881077 0.335898
vt 0.855828 0.217232
vt 0.881077 0.217232
vt 0.881077 0.001808
vt 0.855828 0.001808
vt 0.963385 0.037843
vt 0.947341 0.077886
vt 0.922093 0.082063
vt 0.922093 0.037843
vt 0.977215 0.059773
vt 0.947341 0.140935
vt 0.922093 0.141332
vt 0.963294 0.001808
vt 0.922093 0.001808
vt 0.980598 0.021425
vt 0.947341 0.319502
vt 0.922093 0.319502
vt 0.947341 0.481446
vt 0.922093 0.481446
vt 0.704926 0.060871
vt 0.767326 0.082044
vt 0.747799 0.129186
vt 0.691711 0.110192
vt 0.715696 0.020679
vt 0.793432 0.046487
vt 0.802935 0.156263
vt 0.828466 0.112043
vt 0.726312 0.181415
vt 0.674271 0.175276
vt 0.631592 0.098049
vt 0.638253 0.047459
vt 0.849271 0.076008
vt 0.644213 0.006504
vt 0.768717 0.215532
vt 0.651474 0.363324
vt 0.628890 0.344644
vt 0.618908 0.196031
vt 0.572352 0.043417
vt 0.572351 0.094478
vt 0.572352 0.001808
vt 0.665850 0.393702
vt 0.572351 0.555646
vt 0.599687 0.344496
vt 0.572351 0.184599
vt 0.511286 0.098049
vt 0.504626 0.047459
vt 0.489731 0.006504
vt 0.572351 0.322654
vt 0.523960 0.193016
vt 0.439777 0.060871
vt 0.452992 0.110192
vt 0.429008 0.020679
vt 0.541533 0.324706
vt 0.482832 0.221556
vt 0.514629 0.340223
vt 0.270833 0.478435
vt 0.329277 0.453145
vt 0.357152 0.488266
vt 0.282816 0.514894
vt 0.264110 0.455489
vt 0.320784 0.437623
vt 0.410926 0.461829
vt 0.388780 0.423481
vt 0.366417 0.510967
vt 0.288680 0.536775
vt 0.214038 0.526613
vt 0.207932 0.486863
vt 0.247256 0.383873
vt 0.299297 0.377977
vt 0.378610 0.405368
vt 0.422256 0.481446
vt 0.217198 0.550950
vt 0.145860 0.490778
vt 0.145336 0.532993
vt 0.201874 0.212810
vt 0.224458 0.194130
vt 0.341701 0.342319
vt 0.204051 0.463448
vt 0.191892 0.361947
vt 0.145336 0.555647
vt 0.065875 0.526613
vt 0.081968 0.491003
vt 0.145336 0.001808
vt 0.238835 0.163752
vt 0.172672 0.212958
vt 0.145336 0.372856
vt 0.144880 0.467265
vt 0.062715 0.550950
vt 0.019271 0.471173
vt 0.007857 0.514894
vt 0.145336 0.234800
vt 0.083875 0.467398
vt 0.096944 0.364438
vt 0.001992 0.536775
vt 0.024632 0.452037
vt 0.114518 0.232748
vt 0.055817 0.335898
vt 0.087613 0.217232
vt 0.944965 0.617590
vt 0.989369 0.617590
vt 0.986536 0.695327
vt 0.945335 0.695327
vt 0.986536 0.561751
vt 0.945335 0.561751
vt 0.989369 0.766809
vt 0.944965 0.766809
vt 0.986536 0.838671
vt 0.945335 0.838671
vt 0.989369 0.921292
vt 0.944965 0.921292
vt 0.986536 0.982015
vt 0.945335 0.982015
vn 0.087347 0.974778 -0.205372
vn 0.358770 0.346751 -0.866630
vn 0.242825 0.346280 -0.906160
vn 0.063700 0.968858 -0.239283
vn 0.122341 0.348235 -0.929389
vn 0.029367 0.974704 -0.221563
vn -0.030850 0.974312 -0.223081
vn -0.122272 0.346557 -0.930026
vn -0.218308 0.347532 -0.911901
vn -0.069438 0.976890 -0.202151
vn -0.000000 -1.000000 0.000000
vn -0.000000 -1.000000 0.000000
vn -0.000000 -1.000000 0.000000
vn 0.000000 -1.000000 -0.000000
vn -0.000000 -1.000000 0.000000
vn -0.000000 -1.000000 0.000000
vn -0.000000 -1.000000 0.000000
vn 0.000000 -1.000000 0.000000
vn -0.000000 -1.000000 0.000000
vn -0.000000 -1.000000 0.000000
vn -0.119859 0.886886 0.446168
vn -0.185295 0.886365 0.424292
vn -0.062413 0.880464 0.469986
vn 0.103152 0.875204 0.472629
vn 0.070694 0.887660 0.455040
vn -0.967085 -0.008747 0.254301
vn -0.966303 -0.001940 0.257398
vn -0.499076 0.794011 0.347088
vn 0.865990 0.000245 0.500061
vn 0.867048 0.004303 0.498206
vn 0.866552 -0.000620 0.499086
vn 0.866021 0.000034 0.500008
vn 0.372517 0.753142 0.542226
vn 0.865744 -0.001794 0.500485
vn 0.866769 -0.001784 0.498706
vn 0.382683 -0.000001 -0.923880
vn 0.258819 -0.000001 -0.965926
vn 0.130526 -0.000000 -0.991445
vn -0.130526 -0.000000 -0.991445
vn -0.227328 -0.000000 -0.973818
vn -0.965938 -0.001106 0.258770
vn -0.966027 -0.000472 0.258440
vn 0.000124 0.968717 -0.248168
vn -0.000004 0.885147 0.465312
vn -0.000022 0.346486 -0.938055
vn -0.000000 -0.000000 -1.000000
vn -0.000000 -1.000000 -0.000000
vn -0.000000 -1.000000 0.000000
vn 0.118417 0.977126 -0.176639
vn -0.209803 0.876541 0.433197
vn 0.443009 0.346798 -0.826725
vn 0.467383 -0.000001 -0.884055
vn 0.000000 -1.000000 0.000000
vn 0.000000 -1.000000 0.000000
vn -0.500591 0.855218 0.134206
vn -0.001082 0.999999 0.000054
vn 0.042579 0.959529 0.278372
vn 0.000006 0.959617 0.281310
vn 0.000037 1.000000 0.000278
vn -0.000075 1.000000 -0.000095
vn -0.037797 0.956259 0.290071
vn -0.085402 0.943776 0.319364
vn 0.000060 1.000000 0.000311
vn 0.001040 0.999999 0.000312
vn -0.145330 0.929416 0.339212
vn 0.434934 0.864664 0.251373
vn 0.865811 0.002661 0.500365
vn 0.000000 -1.000000 0.000000
vn -0.000000 -1.000000 0.000000
vn 0.000000 -1.000000 0.000000
vn 0.000000 -1.000000 0.000000
vn -0.000000 -1.000000 -0.000000
vn -0.000000 -1.000000 0.000000
vn -0.000000 -1.000000 0.000000
vn -0.965892 -0.000573 0.258945
vn -0.966055 -0.000539 0.258338
vn -0.965926 -0.000004 0.258818
vn -0.000000 -1.000000 0.000000
vn 0.000000 -1.000000 0.000000
vn 0.000000 -1.000000 0.000000
vn -0.000000 -1.000000 0.000000
vn -0.000000 -1.000000 0.000000
vn -0.000000 -1.000000 0.000000
vn 0.000000 -1.000000 0.000000
vn 0.866026 -0.000000 0.500000
vn -0.966815 -0.003754 0.255450
vn -0.313295 0.342255 0.885838
vn -0.001156 0.999999 0.000068
vn -0.733205 0.651009 0.196462
vn 0.000132 1.000000 0.000293
vn -0.000177 1.000000 -0.000109
vn 0.000164 1.000000 0.000344
vn 0.000823 1.000000 0.000244
vn 0.670552 0.632973 0.386918
vn 0.866150 0.001952 0.499780
vn 0.866025 0.000004 0.500000
vn -0.000000 -1.000000 0.000000
vn 0.000000 -1.000000 0.000000
vn 0.000000 -1.000000 0.000000
vn 0.000000 -1.000000 0.000000
vn 0.000000 -1.000000 0.000000
vn -0.000000 -1.000000 0.000000
vn 0.000000 -1.000000 0.000000
vn -0.000000 -1.000000 0.000000
vn -0.965926 -0.000007 0.258819
vn -0.965926 -0.000007 0.258819
s 1
g polySurface10 polySurface9 pCylinder4
usemtl blinn4SG
f 21/67/1 22/73/2 12/74/3 6/68/4
f 12/74/3 19/81/5 20/75/6 6/68/4
f 15/90/7 16/97/8 14/103/9 8/99/10
s 3
f 43/29/11 44/30/12 32/31/13 33/32/14
f 33/32/14 34/39/15 42/40/16 43/29/11
f 39/59/17 40/55/18 36/54/19 37/60/20
s 1
f 51/65/21 52/66/22 21/67/1 6/68/4
f 6/68/4 20/75/6 50/76/23 51/65/21
f 47/98/24 48/91/25 15/90/7 8/99/10
f 47/1/26 38/2/27 24/3/28
f 5/24/29 53/19/30 46/15/31 11/22/32
f 46/15/31 30/16/33 31/17/34 45/18/35
f 22/108/2 23/109/36 2/110/37 12/111/3
f 2/110/37 18/114/38 19/115/5 12/111/3
f 16/119/8 17/118/39 4/120/40 14/121/9
f 37/6/41 24/3/28 38/2/27 39/7/42
f 7/83/43 15/90/7 48/91/25 49/82/44
f 13/89/45 16/97/8 15/90/7 7/83/43
f 3/116/46 17/118/39 16/119/8 13/117/45
s 3
f 35/48/47 36/54/19 40/55/18 41/47/48
f 41/47/48 42/40/16 34/39/15 35/48/47
s 1
f 19/115/5 18/114/38 3/116/46 13/117/45
f 20/75/6 19/81/5 13/89/45 7/83/43
f 49/82/44 50/76/23 20/75/6 7/83/43
f 5/71/49 21/67/1 52/66/22 53/72/50
f 11/80/51 22/73/2 21/67/1 5/71/49
f 1/112/52 23/109/36 22/108/2 11/113/51
s 3
f 31/35/53 32/31/13 44/30/12 45/36/54
s 1
f 79/106/55 80/102/56 25/101/57 24/104/28
f 26/96/58 25/101/57 80/102/56 81/95/59
f 81/95/59 68/88/60 27/87/61 26/96/58
f 28/69/62 27/87/61 68/88/60 69/77/63
f 69/77/63 70/78/64 29/70/65 28/69/62
f 30/79/33 29/70/65 70/78/64 71/86/66
f 31/17/34 30/16/33 71/20/66 72/21/67
s 3
f 72/43/68 73/37/69 32/31/13 31/35/53
f 33/32/14 32/31/13 73/37/69 74/38/70
f 74/38/70 75/46/71 34/39/15 33/32/14
f 35/48/47 34/39/15 75/46/71 76/53/72
f 76/53/72 77/58/73 36/54/19 35/48/47
f 37/60/20 36/54/19 77/58/73 78/63/74
s 1
f 78/9/75 79/10/55 24/3/28 37/6/41
f 39/7/42 38/2/27 14/5/76 4/8/77
s 3
f 4/61/78 17/56/79 40/55/18 39/59/17
f 41/47/48 40/55/18 17/56/79 3/49/80
f 3/49/80 18/42/81 42/40/16 41/47/48
f 43/29/11 42/40/16 18/42/81 2/33/82
f 2/33/82 23/34/83 44/30/12 43/29/11
f 45/36/54 44/30/12 23/34/83 1/41/84
s 1
f 11/22/32 46/15/31 45/18/35 1/23/85
f 24/104/28 25/101/57 48/91/25 47/98/24
f 49/82/44 48/91/25 25/101/57 26/96/58
f 26/96/58 27/87/61 50/76/23 49/82/44
f 51/65/21 50/76/23 27/87/61 28/69/62
f 28/69/62 29/70/65 52/66/22 51/65/21
f 53/72/50 52/66/22 29/70/65 30/79/33
f 46/15/31 53/19/30 30/16/33
f 8/4/86 14/5/76 38/2/27 47/1/26
f 10/92/87 55/105/88 54/107/89
f 56/100/90 55/105/88 10/92/87
f 10/92/87 57/94/91 56/100/90
f 58/84/92 57/94/91 10/92/87
f 10/92/87 59/85/93 58/84/92
f 60/93/94 59/85/93 10/92/87
f 61/26/95 60/25/94 10/27/87 9/28/96
s 3
f 9/51/97 62/44/98 61/50/99
f 63/45/100 62/44/98 9/51/97
f 9/51/97 64/52/101 63/45/100
f 65/57/102 64/52/101 9/51/97
f 9/51/97 66/62/103 65/57/102
f 67/64/104 66/62/103 9/51/97
s 1
f 10/13/87 54/12/89 67/11/105 9/14/106
f 69/77/63 68/88/60 57/94/91 58/84/92
f 58/84/92 59/85/93 70/78/64 69/77/63
f 71/86/66 70/78/64 59/85/93 60/93/94
f 72/21/67 71/20/66 60/25/94 61/26/95
s 3
f 61/50/99 62/44/98 73/37/69 72/43/68
f 74/38/70 73/37/69 62/44/98 63/45/100
f 63/45/100 64/52/101 75/46/71 74/38/70
f 76/53/72 75/46/71 64/52/101 65/57/102
f 65/57/102 66/62/103 77/58/73 76/53/72
f 78/63/74 77/58/73 66/62/103 67/64/104
s 1
f 67/11/105 54/12/89 79/10/55 78/9/75
f 54/107/89 55/105/88 80/102/56 79/106/55
f 81/95/59 80/102/56 55/105/88 56/100/90
f 56/100/90 57/94/91 68/88/60 81/95/59
